PathFileType	3	(X/Y/Z)	D:\minhoCalibration\240510\subject1_KPNP\preferred\preferred11.trc
DataRate	CameraRate	NumFrames	NumMarkers	Units	OrigDataRate	OrigDataStartFrame	OrigNumFrames
200.0	200.0	24	10	mm	200.0	367	246	
Frame#	Time	Left_Ankle_Outer1			Left_Ankle_Inner1			Left_Knee_Outer1			Left_Knee_Inner1			Left_Wrist1			Right_Wrist1			Right_Knee_Inner1			Right_Knee_Outer1			Right_Ankle_Inner1			Right_Ankle_Outer1			
		X1	Y1	Z1	X2	Y2	Z2	X3	Y3	Z3	X4	Y4	Z4	X5	Y5	Z5	X6	Y6	Z6	X7	Y7	Z7	X8	Y8	Z8	X9	Y9	Z9	X10	Y10	Z10	
367	1.825	-491.14569	134.6134	-575.03607	-542.58759	136.48201	-548.5625	-478.23834	582.36902	-465.44742	-583.99097	535.17944	-483.5401	-511.04932	971.30371	-669.59937	-736.56989	980.8645	-942.22638	-717.65228	503.95053	-924.44958	-756.54547	544.00543	-1021.5852	-646.25653	107.54507	-1101.8322	-724.54523	111.27209	-1177.0732
368	1.83	-493.12436	135.03421	-574.1825	-543.66962	137.06337	-546.00458	-476.49634	582.13928	-462.07803	-582.72449	535.52112	-479.3324	-509.30341	970.08215	-667.54034	-735.92999	980.10681	-939.46716	-717.64563	503.20215	-922.44562	-756.7547	543.55707	-1019.6287	-646.02264	107.41479	-1101.4546	-724.37891	111.36198	-1176.7358
369	1.835	-495.16812	135.30782	-573.19006	-545.39856	137.46191	-544.65417	-474.71521	581.87738	-458.75601	-581.48242	535.84375	-475.08603	-507.6062	968.80243	-665.47314	-735.03473	979.68951	-936.78632	-717.62946	502.47568	-920.41626	-756.92883	542.95587	-1017.4218	-645.89093	107.24889	-1101.0094	-724.12738	111.13898	-1176.2271
370	1.84	-497.48892	135.39024	-571.95795	-547.16101	137.89375	-543.20428	-472.9418	581.48785	-455.45941	-580.25714	536.1416	-470.81174	-505.78976	967.47559	-663.35071	-734.59308	978.56226	-933.72583	-717.81628	501.68323	-918.16235	-757.23267	542.40448	-1015.2092	-645.75964	107.10454	-1100.535	-723.90912	111.52073	-1175.7214
371	1.845	-499.66718	135.85678	-571.40607	-549.0614	138.3828	-541.65961	-471.1535	581.11066	-452.12387	-579.00446	536.37762	-466.53171	-503.78561	966.12097	-661.0603	-733.83716	978.29395	-930.69867	-717.8927	500.77814	-916.07849	-757.52307	541.77014	-1012.8582	-645.58606	106.96862	-1100.0651	-723.9447	110.88637	-1175.2455
372	1.85	-501.96243	136.26076	-570.5459	-550.9046	138.81888	-539.99963	-469.32117	580.61902	-448.79584	-577.66888	536.57098	-462.25607	-502.048	964.89917	-659.34705	-733.44739	977.28784	-927.50897	-718.13898	499.86945	-913.74689	-757.98499	541.09991	-1010.6249	-645.34412	106.88716	-1099.6761	-723.61414	111.8058	-1174.8414
373	1.855	-504.42542	136.54401	-569.65729	-552.79938	139.2191	-538.53394	-467.43845	580.07373	-445.564	-576.28748	536.72235	-458.04691	-500.25958	963.43713	-657.336	-732.90265	976.4715	-924.62695	-718.43536	498.86252	-911.35468	-758.43799	540.38867	-1008.095	-645.29785	106.77271	-1099.1624	-723.58673	111.42006	-1174.2574
374	1.86	-506.92386	136.81065	-568.80414	-554.58502	139.61909	-536.91711	-465.5199	579.45746	-442.30759	-574.84802	536.80109	-453.74432	-498.50934	961.90674	-655.34705	-732.50116	975.67297	-921.27692	-718.85602	497.86984	-908.89697	-759.02686	539.63617	-1005.3762	-645.18597	106.69065	-1098.6453	-723.19977	112.47172	-1173.7251
375	1.865	-509.44388	136.97858	-567.69952	-556.51654	139.99374	-535.44769	-463.54221	578.76312	-439.22235	-573.34674	536.80481	-449.46585	-496.81143	960.40643	-653.31946	-732.03387	974.97693	-917.89557	-719.38525	496.76349	-906.27979	-759.74847	538.86194	-1002.8002	-645.03729	106.61033	-1098.1458	-723.15405	112.89359	-1173.376
376	1.87	-511.55914	137.48157	-567.12634	-558.42236	140.32141	-534.01636	-461.65509	578.02466	-436.09955	-571.87048	536.75061	-445.23056	-495.04623	958.89606	-651.21869	-731.72406	973.99207	-914.19299	-720.07019	495.69308	-903.50256	-760.52637	538.0224	-1000.0353	-644.91833	106.56049	-1097.5183	-723.11127	113.19157	-1172.7509
377	1.875	-514.00592	137.48152	-565.87933	-559.98077	140.70293	-532.55975	-459.83459	577.2572	-433.04852	-570.4184	536.67834	-441.11209	-493.31879	957.39777	-649.05231	-731.46094	972.86072	-910.68884	-720.78503	494.50931	-900.61951	-761.41052	537.23303	-996.92151	-644.88647	106.57027	-1096.9014	-722.93579	113.64859	-1172.0881
378	1.88	-515.75885	137.7872	-565.29865	-561.51837	141.01173	-531.32837	-458.04459	576.42383	-430.09888	-568.95917	536.43658	-437.03976	-491.61951	955.96259	-646.77405	-731.1712	971.96228	-906.79773	-721.67194	493.33121	-898.12482	-762.41833	536.4021	-993.93811	-644.95209	106.56744	-1096.2297	-723.19348	113.05647	-1171.2659
379	1.885	-517.54315	137.93181	-564.39935	-563.02997	141.10788	-530.28662	-456.37793	575.49219	-427.16199	-567.59851	536.164	-433.00714	-489.29135	954.73328	-644.76666	-730.8808	970.75458	-903.43726	-722.74017	492.25403	-894.2547	-763.48724	535.53137	-990.56061	-644.95703	106.56734	-1095.3843	-723.09778	114.1172	-1170.7012
380	1.89	-519.2135	137.75842	-563.21204	-564.08923	141.157	-529.1308	-454.40454	574.61517	-424.4946	-566.33405	535.69543	-429.26193	-487.45355	953.32422	-642.44604	-730.5929	969.84711	-899.276	-723.79413	491.02304	-890.8006	-764.66644	534.69751	-987.06024	-644.90228	106.73026	-1094.5229	-723.05475	114.16077	-1169.7708
381	1.895	-520.13525	137.99785	-562.66962	-565.05713	141.14307	-528.13031	-453.26233	573.45386	-421.84854	-565.11047	535.17749	-425.54367	-485.63644	951.94061	-639.95239	-730.4646	968.3407	-895.20404	-724.97754	489.80548	-887.17743	-765.99536	533.79291	-983.39551	-644.89496	106.95214	-1093.6711	-722.97119	114.81676	-1168.8765
382	1.9	-520.96539	137.76007	-561.61816	-565.68329	140.9583	-527.50885	-451.78766	572.30585	-419.04092	-564.04193	534.4892	-422.12384	-484.17844	950.4115	-637.44452	-730.01801	967.5426	-891.49005	-726.14014	488.6759	-883.19342	-767.42584	532.8844	-979.47736	-644.95117	107.24942	-1092.6923	-722.8526	115.95499	-1168.1439
383	1.905	-520.99316	137.82172	-561.20337	-565.82306	140.75565	-527.02911	-450.78851	570.99945	-415.76666	-563.07343	533.7168	-418.82849	-482.12839	949.18549	-634.78406	-729.83514	966.30103	-887.474	-727.41302	487.45493	-879.21838	-768.98779	532.09851	-975.4859	-645.04901	107.72107	-1091.35	-722.51935	117.32428	-1167.0912
384	1.91	-520.57251	137.6037	-560.66003	-565.46985	140.4623	-526.7774	-449.92496	569.58752	-412.74722	-562.20972	532.83624	-415.66556	-480.17908	947.94116	-632.05579	-729.51324	965.43579	-882.69409	-728.87982	486.34973	-874.84619	-770.78674	531.38586	-971.2027	-645.18958	108.49084	-1090.066	-722.7356	117.30103	-1165.9325
385	1.915	-519.49213	137.31477	-560.2926	-564.58173	140.0517	-526.79321	-449.34296	568.08722	-409.93311	-561.48706	531.84528	-412.64813	-478.185	946.7533	-629.25458	-729.25854	964.41278	-878.30243	-730.42377	485.30588	-870.23492	-772.71625	530.71008	-966.57977	-645.30121	109.32158	-1088.5719	-722.4906	118.35001	-1164.8524
386	1.92	-517.62396	137.12344	-560.05383	-563.15155	139.52129	-527.46179	-448.73367	566.69391	-406.65378	-560.87976	530.87726	-409.76959	-476.04547	945.6261	-626.38794	-728.84943	963.74084	-873.46368	-732.29584	484.23688	-865.30682	-774.88599	530.10822	-961.7475	-645.49048	110.50201	-1086.9176	-721.93823	120.95818	-1163.5544
387	1.925	-515.05194	136.67703	-559.88489	-560.95544	139.02766	-528.18872	-449.17664	565.25342	-403.96219	-560.36774	529.80896	-407.16214	-473.84973	944.61688	-623.43201	-728.55396	962.9635	-867.77979	-734.36932	483.2728	-860.19519	-777.22003	529.62805	-956.62561	-645.8587	112.01127	-1085.0538	-721.96716	122.90211	-1162.104
388	1.93	-511.90073	136.4247	-559.80566	-558.46484	138.47839	-529.28345	-448.80292	563.67059	-400.80774	-560.08533	528.88086	-404.7717	-471.53735	943.76776	-620.37262	-728.08582	962.27509	-862.31055	-736.65662	482.29285	-854.33508	-779.88678	529.37994	-951.19214	-646.31836	113.77943	-1083.1289	-722.00592	125.05594	-1160.5417
389	1.935	-508.24368	135.97194	-559.76489	-555.56787	137.96025	-530.50543	-448.81915	562.3208	-397.74261	-559.85455	527.94489	-402.8605	-469.02652	943.1167	-617.25464	-727.29767	962.10901	-857.65295	-739.67206	481.77582	-848.5379	-782.83618	529.37744	-945.40582	-646.8587	116.1339	-1081.0695	-722.23218	127.66203	-1158.7886
390	1.94	-504.30209	135.60667	-559.72156	-552.55487	137.41211	-532.39819	-449.11206	560.83734	-394.25482	-559.71149	526.91199	-401.44269	-466.36841	942.75757	-614.01331	-726.65833	961.86292	-852.1131	-742.70142	481.27466	-842.1156	-786.17224	529.65179	-939.20044	-647.60425	119.0091	-1078.8486	-722.703	130.61032	-1156.7676
